<?xml version="1.0" encoding="us-ascii" standalone="no"?><svg xmlns="http://www.w3.org/2000/svg" xmlns:xlink="http://www.w3.org/1999/xlink" contentStyleType="text/css" height="515px" preserveAspectRatio="none" style="width:1150px;height:515px;background:#FFFFFF;" version="1.1" viewBox="0 0 1150 515" width="1150px" zoomAndPan="magnify"><defs/><g><rect fill="#FFFFFF" height="304.1953" style="stroke:#181818;stroke-width:1.0;" width="10" x="256.5" y="112.4297"/><rect fill="#FFFFFF" height="245.9297" style="stroke:#181818;stroke-width:1.0;" width="10" x="476.5" y="141.5625"/><rect fill="#FFFFFF" height="187.6641" style="stroke:#181818;stroke-width:1.0;" width="10" x="688.5" y="170.6953"/><rect fill="#FFFFFF" height="72.2656" style="stroke:#181818;stroke-width:1.0;" width="10" x="857.5" y="199.8281"/><rect fill="#FFFFFF" height="100.2656" style="stroke:#181818;stroke-width:1.0;" width="10" x="1055.5" y="228.9609"/><rect fill="#FFFFFF" height="71.1328" style="stroke:#181818;stroke-width:1.0;" width="10" x="1110" y="228.9609"/><line style="stroke:#181818;stroke-width:0.5;stroke-dasharray:5.0,5.0;" x1="33" x2="33" y1="81.2969" y2="434.625"/><line style="stroke:#181818;stroke-width:0.5;stroke-dasharray:5.0,5.0;" x1="261" x2="261" y1="81.2969" y2="434.625"/><line style="stroke:#181818;stroke-width:0.5;stroke-dasharray:5.0,5.0;" x1="481.5" x2="481.5" y1="81.2969" y2="434.625"/><line style="stroke:#181818;stroke-width:0.5;stroke-dasharray:5.0,5.0;" x1="693.5" x2="693.5" y1="81.2969" y2="434.625"/><line style="stroke:#181818;stroke-width:0.5;stroke-dasharray:5.0,5.0;" x1="862" x2="862" y1="81.2969" y2="434.625"/><line style="stroke:#181818;stroke-width:0.5;stroke-dasharray:5.0,5.0;" x1="1060" x2="1060" y1="81.2969" y2="434.625"/><line style="stroke:#181818;stroke-width:0.5;stroke-dasharray:5.0,5.0;" x1="1115" x2="1115" y1="81.2969" y2="434.625"/><text fill="#000000" font-family="sans-serif" font-size="14" lengthAdjust="spacing" textLength="51" x="5" y="77.9951">Usuario</text><ellipse cx="33.5" cy="13.5" fill="#E2E2F0" rx="8" ry="8" style="stroke:#181818;stroke-width:0.5;"/><path d="M33.5,21.5 L33.5,48.5 M20.5,29.5 L46.5,29.5 M33.5,48.5 L20.5,63.5 M33.5,48.5 L46.5,63.5 " fill="none" style="stroke:#181818;stroke-width:0.5;"/><text fill="#000000" font-family="sans-serif" font-size="14" lengthAdjust="spacing" textLength="51" x="5" y="446.6201">Usuario</text><ellipse cx="33.5" cy="458.4219" fill="#E2E2F0" rx="8" ry="8" style="stroke:#181818;stroke-width:0.5;"/><path d="M33.5,466.4219 L33.5,493.4219 M20.5,474.4219 L46.5,474.4219 M33.5,493.4219 L20.5,508.4219 M33.5,493.4219 L46.5,508.4219 " fill="none" style="stroke:#181818;stroke-width:0.5;"/><text fill="#000000" font-family="sans-serif" font-size="14" lengthAdjust="spacing" textLength="73" x="222" y="77.9951">index.php</text><path d="M241,37 L241,61 M241,49 L258,49 " fill="none" style="stroke:#181818;stroke-width:0.5;"/><ellipse cx="270" cy="49" fill="#E2E2F0" rx="12" ry="12" style="stroke:#181818;stroke-width:0.5;"/><text fill="#000000" font-family="sans-serif" font-size="14" lengthAdjust="spacing" textLength="73" x="222" y="446.6201">index.php</text><path d="M241,453.9219 L241,477.9219 M241,465.9219 L258,465.9219 " fill="none" style="stroke:#181818;stroke-width:0.5;"/><ellipse cx="270" cy="465.9219" fill="#E2E2F0" rx="12" ry="12" style="stroke:#181818;stroke-width:0.5;"/><text fill="#000000" font-family="sans-serif" font-size="14" lengthAdjust="spacing" textLength="140" x="408.5" y="77.9951">Usuarios.php (Rota)</text><path d="M461,37 L461,61 M461,49 L478,49 " fill="none" style="stroke:#181818;stroke-width:0.5;"/><ellipse cx="490" cy="49" fill="#E2E2F0" rx="12" ry="12" style="stroke:#181818;stroke-width:0.5;"/><text fill="#000000" font-family="sans-serif" font-size="14" lengthAdjust="spacing" textLength="140" x="408.5" y="446.6201">Usuarios.php (Rota)</text><path d="M461,453.9219 L461,477.9219 M461,465.9219 L478,465.9219 " fill="none" style="stroke:#181818;stroke-width:0.5;"/><ellipse cx="490" cy="465.9219" fill="#E2E2F0" rx="12" ry="12" style="stroke:#181818;stroke-width:0.5;"/><text fill="#000000" font-family="sans-serif" font-size="14" lengthAdjust="spacing" textLength="124" x="628.5" y="77.9951">UsuarioController</text><ellipse cx="693.5" cy="49" fill="#E2E2F0" rx="12" ry="12" style="stroke:#181818;stroke-width:0.5;"/><polygon fill="#181818" points="689.5,37,695.5,32,693.5,37,695.5,42,689.5,37" style="stroke:#181818;stroke-width:1.0;"/><text fill="#000000" font-family="sans-serif" font-size="14" lengthAdjust="spacing" textLength="124" x="628.5" y="446.6201">UsuarioController</text><ellipse cx="693.5" cy="465.9219" fill="#E2E2F0" rx="12" ry="12" style="stroke:#181818;stroke-width:0.5;"/><polygon fill="#181818" points="689.5,453.9219,695.5,448.9219,693.5,453.9219,695.5,458.9219,689.5,453.9219" style="stroke:#181818;stroke-width:1.0;"/><text fill="#000000" font-family="sans-serif" font-size="14" lengthAdjust="spacing" textLength="149" x="785" y="77.9951">Usuarios.php (Model)</text><ellipse cx="862.5" cy="49" fill="#E2E2F0" rx="12" ry="12" style="stroke:#181818;stroke-width:0.5;"/><line style="stroke:#181818;stroke-width:0.5;" x1="850.5" x2="874.5" y1="63" y2="63"/><text fill="#000000" font-family="sans-serif" font-size="14" lengthAdjust="spacing" textLength="149" x="785" y="446.6201">Usuarios.php (Model)</text><ellipse cx="862.5" cy="465.9219" fill="#E2E2F0" rx="12" ry="12" style="stroke:#181818;stroke-width:0.5;"/><line style="stroke:#181818;stroke-width:0.5;" x1="850.5" x2="874.5" y1="479.9219" y2="479.9219"/><text fill="#000000" font-family="sans-serif" font-size="14" lengthAdjust="spacing" textLength="33" x="1041" y="77.9951">Crud</text><ellipse cx="1060.5" cy="49" fill="#E2E2F0" rx="12" ry="12" style="stroke:#181818;stroke-width:0.5;"/><polygon fill="#181818" points="1056.5,37,1062.5,32,1060.5,37,1062.5,42,1056.5,37" style="stroke:#181818;stroke-width:1.0;"/><text fill="#000000" font-family="sans-serif" font-size="14" lengthAdjust="spacing" textLength="33" x="1041" y="446.6201">Crud</text><ellipse cx="1060.5" cy="465.9219" fill="#E2E2F0" rx="12" ry="12" style="stroke:#181818;stroke-width:0.5;"/><polygon fill="#181818" points="1056.5,453.9219,1062.5,448.9219,1060.5,453.9219,1062.5,458.9219,1056.5,453.9219" style="stroke:#181818;stroke-width:1.0;"/><text fill="#000000" font-family="sans-serif" font-size="14" lengthAdjust="spacing" textLength="44" x="1090" y="77.9951">banco</text><path d="M1097,29 C1097,19 1115,19 1115,19 C1115,19 1133,19 1133,29 L1133,55 C1133,65 1115,65 1115,65 C1115,65 1097,65 1097,55 L1097,29 " fill="#E2E2F0" style="stroke:#181818;stroke-width:1.5;"/><path d="M1097,29 C1097,39 1115,39 1115,39 C1115,39 1133,39 1133,29 " fill="none" style="stroke:#181818;stroke-width:1.5;"/><text fill="#000000" font-family="sans-serif" font-size="14" lengthAdjust="spacing" textLength="44" x="1090" y="446.6201">banco</text><path d="M1097,459.9219 C1097,449.9219 1115,449.9219 1115,449.9219 C1115,449.9219 1133,449.9219 1133,459.9219 L1133,485.9219 C1133,495.9219 1115,495.9219 1115,495.9219 C1115,495.9219 1097,495.9219 1097,485.9219 L1097,459.9219 " fill="#E2E2F0" style="stroke:#181818;stroke-width:1.5;"/><path d="M1097,459.9219 C1097,469.9219 1115,469.9219 1115,469.9219 C1115,469.9219 1133,469.9219 1133,459.9219 " fill="none" style="stroke:#181818;stroke-width:1.5;"/><rect fill="#FFFFFF" height="304.1953" style="stroke:#181818;stroke-width:1.0;" width="10" x="256.5" y="112.4297"/><rect fill="#FFFFFF" height="245.9297" style="stroke:#181818;stroke-width:1.0;" width="10" x="476.5" y="141.5625"/><rect fill="#FFFFFF" height="187.6641" style="stroke:#181818;stroke-width:1.0;" width="10" x="688.5" y="170.6953"/><rect fill="#FFFFFF" height="72.2656" style="stroke:#181818;stroke-width:1.0;" width="10" x="857.5" y="199.8281"/><rect fill="#FFFFFF" height="100.2656" style="stroke:#181818;stroke-width:1.0;" width="10" x="1055.5" y="228.9609"/><rect fill="#FFFFFF" height="71.1328" style="stroke:#181818;stroke-width:1.0;" width="10" x="1110" y="228.9609"/><polygon fill="#181818" points="244.5,108.4297,254.5,112.4297,244.5,116.4297,248.5,112.4297" style="stroke:#181818;stroke-width:1.0;"/><line style="stroke:#181818;stroke-width:1.0;" x1="33.5" x2="250.5" y1="112.4297" y2="112.4297"/><text fill="#000000" font-family="sans-serif" font-size="13" lengthAdjust="spacing" textLength="204" x="40.5" y="107.3638">Requisi&#231;&#227;o (ex: POST /usuarios)</text><polygon fill="#181818" points="464.5,137.5625,474.5,141.5625,464.5,145.5625,468.5,141.5625" style="stroke:#181818;stroke-width:1.0;"/><line style="stroke:#181818;stroke-width:1.0;" x1="266.5" x2="470.5" y1="141.5625" y2="141.5625"/><text fill="#000000" font-family="sans-serif" font-size="13" lengthAdjust="spacing" textLength="191" x="273.5" y="136.4966">Direciona para rota espec&#237;fica</text><polygon fill="#181818" points="676.5,166.6953,686.5,170.6953,676.5,174.6953,680.5,170.6953" style="stroke:#181818;stroke-width:1.0;"/><line style="stroke:#181818;stroke-width:1.0;" x1="486.5" x2="682.5" y1="170.6953" y2="170.6953"/><text fill="#000000" font-family="sans-serif" font-size="13" lengthAdjust="spacing" textLength="183" x="493.5" y="165.6294">Instancia e chama o m&#233;todo</text><polygon fill="#181818" points="845.5,195.8281,855.5,199.8281,845.5,203.8281,849.5,199.8281" style="stroke:#181818;stroke-width:1.0;"/><line style="stroke:#181818;stroke-width:1.0;" x1="698.5" x2="851.5" y1="199.8281" y2="199.8281"/><text fill="#000000" font-family="sans-serif" font-size="13" lengthAdjust="spacing" textLength="140" x="705.5" y="194.7622">Cria objeto de usu&#225;rio</text><polygon fill="#181818" points="1043.5,224.9609,1053.5,228.9609,1043.5,232.9609,1047.5,228.9609" style="stroke:#181818;stroke-width:1.0;"/><line style="stroke:#181818;stroke-width:1.0;" x1="698.5" x2="1049.5" y1="228.9609" y2="228.9609"/><text fill="#000000" font-family="sans-serif" font-size="13" lengthAdjust="spacing" textLength="175" x="705.5" y="223.895">Chama m&#233;todo (ex: insert)</text><polygon fill="#181818" points="878.5,254.0938,868.5,258.0938,878.5,262.0938,874.5,258.0938" style="stroke:#181818;stroke-width:1.0;"/><line style="stroke:#181818;stroke-width:1.0;" x1="872.5" x2="1054.5" y1="258.0938" y2="258.0938"/><text fill="#000000" font-family="sans-serif" font-size="13" lengthAdjust="spacing" textLength="164" x="884.5" y="253.0278">Acessa e manipula dados</text><polygon fill="#181818" points="1043.5,268.0938,1053.5,272.0938,1043.5,276.0938,1047.5,272.0938" style="stroke:#181818;stroke-width:1.0;"/><line style="stroke:#181818;stroke-width:1.0;stroke-dasharray:2.0,2.0;" x1="862.5" x2="1049.5" y1="272.0938" y2="272.0938"/><polygon fill="#181818" points="1098,282.0938,1108,286.0938,1098,290.0938,1102,286.0938" style="stroke:#181818;stroke-width:1.0;"/><line style="stroke:#181818;stroke-width:1.0;" x1="1065.5" x2="1104" y1="286.0938" y2="286.0938"/><polygon fill="#181818" points="1076.5,296.0938,1066.5,300.0938,1076.5,304.0938,1072.5,300.0938" style="stroke:#181818;stroke-width:1.0;"/><line style="stroke:#181818;stroke-width:1.0;" x1="1070.5" x2="1114" y1="300.0938" y2="300.0938"/><line style="stroke:#A80036;stroke-width:2.0;" x1="1106" x2="1124" y1="291.0938" y2="309.0938"/><line style="stroke:#A80036;stroke-width:2.0;" x1="1106" x2="1124" y1="309.0938" y2="291.0938"/><polygon fill="#181818" points="709.5,325.2266,699.5,329.2266,709.5,333.2266,705.5,329.2266" style="stroke:#181818;stroke-width:1.0;"/><line style="stroke:#181818;stroke-width:1.0;stroke-dasharray:2.0,2.0;" x1="703.5" x2="1059.5" y1="329.2266" y2="329.2266"/><text fill="#000000" font-family="sans-serif" font-size="13" lengthAdjust="spacing" textLength="115" x="715.5" y="324.1606">Retorna resultado</text><polygon fill="#181818" points="497.5,354.3594,487.5,358.3594,497.5,362.3594,493.5,358.3594" style="stroke:#181818;stroke-width:1.0;"/><line style="stroke:#181818;stroke-width:1.0;stroke-dasharray:2.0,2.0;" x1="491.5" x2="692.5" y1="358.3594" y2="358.3594"/><text fill="#000000" font-family="sans-serif" font-size="13" lengthAdjust="spacing" textLength="111" x="503.5" y="353.2935">Retorna resposta</text><polygon fill="#181818" points="277.5,383.4922,267.5,387.4922,277.5,391.4922,273.5,387.4922" style="stroke:#181818;stroke-width:1.0;"/><line style="stroke:#181818;stroke-width:1.0;stroke-dasharray:2.0,2.0;" x1="271.5" x2="480.5" y1="387.4922" y2="387.4922"/><text fill="#000000" font-family="sans-serif" font-size="13" lengthAdjust="spacing" textLength="111" x="283.5" y="382.4263">Retorna resposta</text><polygon fill="#181818" points="44.5,412.625,34.5,416.625,44.5,420.625,40.5,416.625" style="stroke:#181818;stroke-width:1.0;"/><line style="stroke:#181818;stroke-width:1.0;stroke-dasharray:2.0,2.0;" x1="38.5" x2="260.5" y1="416.625" y2="416.625"/><text fill="#000000" font-family="sans-serif" font-size="13" lengthAdjust="spacing" textLength="189" x="50.5" y="411.5591">Resposta (ex: usu&#225;rio criado)</text><!--SRC=[TP4nJiGm44Lxds94nHOBVGeab3Gf8f1X3p1h3y8ewmcsWzZZ80f4mIboCSP9o0OXIdlU__xpZIPnW5tiCJW6ZB1JU-wznN24C-SjlLvqZzrPdjHgDPeLCK_XN7F2pGXfPTYdmEs2bDEvfJ02fIAVNFfZqR2bTl9e5eyoz5PPJBZ7IB17RyQCbL8xs5v1NO2cvzv5DtmCxmpdz5h0xStTFLpsi_b6eKdk1HD9_ZgBT06L2sGSUuGE0qAGz42n8pDyFJY39ubMEalA0ceVappl10JpY0S4XiFmcTZo2IzLcV6caE12ylw94eCba3J3cyGveRBaoEOD1HyTPxzf3USZXRIAFvLnEbOgNyplNHkACMSxe7TTto9Oj1nL0zlv4L2M5d6pQ2jLmOg8KljniPvMrx94aAu2nRvDOhjs6aEL8wf_eHrBOR_8tENFf_sFwVnBWkqoDesdGduw12FTMjwiHVKt]--></g></svg>